  0
SECTION
  2
HEADER
  9
$EXTMIN
 10
-0.412000
 20
-0.134000
  9
$EXTMAX
 10
1.005000
 20
1.205000
  9
$LIMMIN
 10
-0.412000
 20
-0.134000
  9
$LIMMAX
 10
1.005000
 20
1.205000
  9
$FILLMODE
 70
  1
  0
ENDSEC
  0
SECTION
  2
TABLES
  0
TABLE
  2
LTYPE
 70
  1
  0
LTYPE
  2
CONTINUOUS
 70
 64
  3
Solid line
 72
 65
 73
  0
 40
0.0
  0
ENDTAB
  0
TABLE
  2
LAYER
 70
 1
  0
LAYER
  2
0
 70
  0
 62
7
  6
CONTINUOUS
  0
LAYER
  2
gg1
 70
  0
 62
1
  6
CONTINUOUS
  0
ENDTAB
  0
TABLE
  2
STYLE
 70
  1
  0
STYLE
  2
STANDARD
 70
  0
 40
0.0
 41
1.0
 50
0.0
 71
  0
 42
0.2
  3
txt
  4

  0
ENDTAB
  0
ENDSEC
  0
SECTION
  2
BLOCKS
  0
BLOCK
  8
0
  2
D10
 70
64
 10
0.0
 20
0.0
  3
D10
  0
CIRCLE
  8
0
 10
0.000000
 20
0.000000
 40
0.005000
 0
ENDBLK
  8
0
  0
BLOCK
  8
0
  2
D11
 70
64
 10
0.0
 20
0.0
  3
D11
  0
CIRCLE
  8
0
 10
0.000000
 20
0.000000
 40
0.002500
 0
ENDBLK
  8
0
  0
BLOCK
  8
0
  2
D12
 70
64
 10
0.0
 20
0.0
  3
D12
  0
CIRCLE
  8
0
 10
0.000000
 20
0.000000
 40
0.003000
 0
ENDBLK
  8
0
  0
ENDSEC
  0
SECTION
  2
ENTITIES
  0
POLYLINE
  8
gg1
 62
1
 40
0.000000
 41
0.000000
 66
  1
  0
VERTEX
  8
gg1
 10
-0.395000
 20
0.000000
  0
VERTEX
  8
gg1
 10
-0.010000
 20
0.000000
  0
SEQEND
  8
gg1
  0
POLYLINE
  8
gg1
 62
1
 40
0.000000
 41
0.000000
 66
  1
  0
VERTEX
  8
gg1
 10
-0.395000
 20
1.200000
  0
VERTEX
  8
gg1
 10
-0.010000
 20
1.200000
  0
SEQEND
  8
gg1
  0
POLYLINE
  8
gg1
 62
1
 40
0.000000
 41
0.000000
 66
  1
  0
VERTEX
  8
gg1
 10
-0.385000
 20
0.000000
  0
VERTEX
  8
gg1
 10
-0.385000
 20
0.388100
  0
SEQEND
  8
gg1
  0
POLYLINE
  8
gg1
 62
1
 40
0.000000
 41
0.000000
 66
  1
  0
VERTEX
  8
gg1
 10
-0.385000
 20
0.779900
  0
VERTEX
  8
gg1
 10
-0.385000
 20
1.200000
  0
SEQEND
  8
gg1
  0
POLYLINE
  8
gg1
 62
1
 40
0.000000
 41
0.000000
 66
  1
  0
VERTEX
  8
gg1
 10
-0.385000
 20
0.000000
  0
VERTEX
  8
gg1
 10
-0.365000
 20
0.060000
  0
SEQEND
  8
gg1
  0
POLYLINE
  8
gg1
 62
1
 40
0.000000
 41
0.000000
 66
  1
  0
VERTEX
  8
gg1
 10
-0.405000
 20
0.060000
  0
VERTEX
  8
gg1
 10
-0.385000
 20
0.000000
  0
SEQEND
  8
gg1
  0
POLYLINE
  8
gg1
 62
1
 40
0.000000
 41
0.000000
 66
  1
  0
VERTEX
  8
gg1
 10
-0.405000
 20
1.140000
  0
VERTEX
  8
gg1
 10
-0.385000
 20
1.200000
  0
VERTEX
  8
gg1
 10
-0.365000
 20
1.140000
  0
SEQEND
  8
gg1
  0
POLYLINE
  8
gg1
 62
1
 40
0.000000
 41
0.000000
 66
  1
  0
VERTEX
  8
gg1
 10
1.000000
 20
-0.105000
  0
VERTEX
  8
gg1
 10
1.000000
 20
-0.010000
  0
SEQEND
  8
gg1
  0
POLYLINE
  8
gg1
 62
1
 40
0.000000
 41
0.000000
 66
  1
  0
VERTEX
  8
gg1
 10
0.000000
 20
-0.105000
  0
VERTEX
  8
gg1
 10
0.000000
 20
-0.010000
  0
SEQEND
  8
gg1
  0
POLYLINE
  8
gg1
 62
1
 40
0.000000
 41
0.000000
 66
  1
  0
VERTEX
  8
gg1
 10
0.679900
 20
-0.095000
  0
VERTEX
  8
gg1
 10
1.000000
 20
-0.095000
  0
SEQEND
  8
gg1
  0
POLYLINE
  8
gg1
 62
1
 40
0.000000
 41
0.000000
 66
  1
  0
VERTEX
  8
gg1
 10
0.000000
 20
-0.095000
  0
VERTEX
  8
gg1
 10
0.288100
 20
-0.095000
  0
SEQEND
  8
gg1
  0
POLYLINE
  8
gg1
 62
1
 40
0.000000
 41
0.000000
 66
  1
  0
VERTEX
  8
gg1
 10
0.940000
 20
-0.075000
  0
VERTEX
  8
gg1
 10
1.000000
 20
-0.095000
  0
SEQEND
  8
gg1
  0
POLYLINE
  8
gg1
 62
1
 40
0.000000
 41
0.000000
 66
  1
  0
VERTEX
  8
gg1
 10
0.940000
 20
-0.115000
  0
VERTEX
  8
gg1
 10
1.000000
 20
-0.095000
  0
SEQEND
  8
gg1
  0
POLYLINE
  8
gg1
 62
1
 40
0.000000
 41
0.000000
 66
  1
  0
VERTEX
  8
gg1
 10
0.000000
 20
-0.095000
  0
VERTEX
  8
gg1
 10
0.060000
 20
-0.115000
  0
SEQEND
  8
gg1
  0
POLYLINE
  8
gg1
 62
1
 40
0.000000
 41
0.000000
 66
  1
  0
VERTEX
  8
gg1
 10
0.000000
 20
-0.095000
  0
VERTEX
  8
gg1
 10
0.060000
 20
-0.075000
  0
SEQEND
  8
gg1
  0
POLYLINE
  8
gg1
 62
1
 40
0.000000
 41
0.000000
 66
  1
  0
VERTEX
  8
gg1
 10
1.000000
 20
0.000000
  0
VERTEX
  8
gg1
 10
1.000000
 20
1.200000
  0
SEQEND
  8
gg1
  0
POLYLINE
  8
gg1
 62
1
 40
0.000000
 41
0.000000
 66
  1
  0
VERTEX
  8
gg1
 10
0.000000
 20
1.200000
  0
VERTEX
  8
gg1
 10
1.000000
 20
1.200000
  0
SEQEND
  8
gg1
  0
POLYLINE
  8
gg1
 62
1
 40
0.000000
 41
0.000000
 66
  1
  0
VERTEX
  8
gg1
 10
0.000000
 20
0.000000
  0
VERTEX
  8
gg1
 10
0.000000
 20
1.200000
  0
SEQEND
  8
gg1
  0
POLYLINE
  8
gg1
 62
1
 40
0.000000
 41
0.000000
 66
  1
  0
VERTEX
  8
gg1
 10
0.000000
 20
0.000000
  0
VERTEX
  8
gg1
 10
1.000000
 20
0.000000
  0
SEQEND
  8
gg1
  0
POLYLINE
  8
gg1
 62
1
 40
0.000000
 41
0.000000
 66
  1
  0
VERTEX
  8
gg1
 10
0.620000
 20
0.905000
  0
VERTEX
  8
gg1
 10
0.640000
 20
0.905000
  0
SEQEND
  8
gg1
  0
POLYLINE
  8
gg1
 62
1
 40
0.000000
 41
0.000000
 66
  1
  0
VERTEX
  8
gg1
 10
0.630000
 20
0.895000
  0
VERTEX
  8
gg1
 10
0.630000
 20
0.915000
  0
SEQEND
  8
gg1
  0
POLYLINE
  8
gg1
 62
1
 40
0.000000
 41
0.000000
 66
  1
  0
VERTEX
  8
gg1
 10
0.030000
 20
0.050000
  0
VERTEX
  8
gg1
 10
0.070000
 20
0.050000
  0
SEQEND
  8
gg1
  0
POLYLINE
  8
gg1
 62
1
 40
0.000000
 41
0.000000
 66
  1
  0
VERTEX
  8
gg1
 10
0.050000
 20
0.030000
  0
VERTEX
  8
gg1
 10
0.050000
 20
0.070000
  0
SEQEND
  8
gg1
  0
POLYLINE
  8
gg1
 62
1
 40
0.000000
 41
0.000000
 66
  1
  0
VERTEX
  8
gg1
 10
0.030000
 20
0.150000
  0
VERTEX
  8
gg1
 10
0.070000
 20
0.150000
  0
SEQEND
  8
gg1
  0
POLYLINE
  8
gg1
 62
1
 40
0.000000
 41
0.000000
 66
  1
  0
VERTEX
  8
gg1
 10
0.050000
 20
0.130000
  0
VERTEX
  8
gg1
 10
0.050000
 20
0.170000
  0
SEQEND
  8
gg1
  0
POLYLINE
  8
gg1
 62
1
 40
0.000000
 41
0.000000
 66
  1
  0
VERTEX
  8
gg1
 10
0.030000
 20
0.250000
  0
VERTEX
  8
gg1
 10
0.070000
 20
0.250000
  0
SEQEND
  8
gg1
  0
POLYLINE
  8
gg1
 62
1
 40
0.000000
 41
0.000000
 66
  1
  0
VERTEX
  8
gg1
 10
0.050000
 20
0.230000
  0
VERTEX
  8
gg1
 10
0.050000
 20
0.270000
  0
SEQEND
  8
gg1
  0
POLYLINE
  8
gg1
 62
1
 40
0.000000
 41
0.000000
 66
  1
  0
VERTEX
  8
gg1
 10
0.030000
 20
0.750000
  0
VERTEX
  8
gg1
 10
0.070000
 20
0.750000
  0
SEQEND
  8
gg1
  0
POLYLINE
  8
gg1
 62
1
 40
0.000000
 41
0.000000
 66
  1
  0
VERTEX
  8
gg1
 10
0.050000
 20
0.730000
  0
VERTEX
  8
gg1
 10
0.050000
 20
0.770000
  0
SEQEND
  8
gg1
  0
POLYLINE
  8
gg1
 62
1
 40
0.000000
 41
0.000000
 66
  1
  0
VERTEX
  8
gg1
 10
0.030000
 20
0.850000
  0
VERTEX
  8
gg1
 10
0.070000
 20
0.850000
  0
SEQEND
  8
gg1
  0
POLYLINE
  8
gg1
 62
1
 40
0.000000
 41
0.000000
 66
  1
  0
VERTEX
  8
gg1
 10
0.050000
 20
0.830000
  0
VERTEX
  8
gg1
 10
0.050000
 20
0.870000
  0
SEQEND
  8
gg1
  0
POLYLINE
  8
gg1
 62
1
 40
0.000000
 41
0.000000
 66
  1
  0
VERTEX
  8
gg1
 10
0.030000
 20
0.950000
  0
VERTEX
  8
gg1
 10
0.070000
 20
0.950000
  0
SEQEND
  8
gg1
  0
POLYLINE
  8
gg1
 62
1
 40
0.000000
 41
0.000000
 66
  1
  0
VERTEX
  8
gg1
 10
0.050000
 20
0.930000
  0
VERTEX
  8
gg1
 10
0.050000
 20
0.970000
  0
SEQEND
  8
gg1
  0
POLYLINE
  8
gg1
 62
1
 40
0.000000
 41
0.000000
 66
  1
  0
VERTEX
  8
gg1
 10
0.030000
 20
1.050000
  0
VERTEX
  8
gg1
 10
0.070000
 20
1.050000
  0
SEQEND
  8
gg1
  0
POLYLINE
  8
gg1
 62
1
 40
0.000000
 41
0.000000
 66
  1
  0
VERTEX
  8
gg1
 10
0.050000
 20
1.030000
  0
VERTEX
  8
gg1
 10
0.050000
 20
1.070000
  0
SEQEND
  8
gg1
  0
POLYLINE
  8
gg1
 62
1
 40
0.000000
 41
0.000000
 66
  1
  0
VERTEX
  8
gg1
 10
0.030000
 20
1.150000
  0
VERTEX
  8
gg1
 10
0.070000
 20
1.150000
  0
SEQEND
  8
gg1
  0
POLYLINE
  8
gg1
 62
1
 40
0.000000
 41
0.000000
 66
  1
  0
VERTEX
  8
gg1
 10
0.050000
 20
1.130000
  0
VERTEX
  8
gg1
 10
0.050000
 20
1.170000
  0
SEQEND
  8
gg1
  0
POLYLINE
  8
gg1
 62
1
 40
0.000000
 41
0.000000
 66
  1
  0
VERTEX
  8
gg1
 10
0.030000
 20
0.650000
  0
VERTEX
  8
gg1
 10
0.070000
 20
0.650000
  0
SEQEND
  8
gg1
  0
POLYLINE
  8
gg1
 62
1
 40
0.000000
 41
0.000000
 66
  1
  0
VERTEX
  8
gg1
 10
0.050000
 20
0.630000
  0
VERTEX
  8
gg1
 10
0.050000
 20
0.670000
  0
SEQEND
  8
gg1
  0
POLYLINE
  8
gg1
 62
1
 40
0.000000
 41
0.000000
 66
  1
  0
VERTEX
  8
gg1
 10
0.030000
 20
0.550000
  0
VERTEX
  8
gg1
 10
0.070000
 20
0.550000
  0
SEQEND
  8
gg1
  0
POLYLINE
  8
gg1
 62
1
 40
0.000000
 41
0.000000
 66
  1
  0
VERTEX
  8
gg1
 10
0.050000
 20
0.530000
  0
VERTEX
  8
gg1
 10
0.050000
 20
0.570000
  0
SEQEND
  8
gg1
  0
POLYLINE
  8
gg1
 62
1
 40
0.000000
 41
0.000000
 66
  1
  0
VERTEX
  8
gg1
 10
0.030000
 20
0.450000
  0
VERTEX
  8
gg1
 10
0.070000
 20
0.450000
  0
SEQEND
  8
gg1
  0
POLYLINE
  8
gg1
 62
1
 40
0.000000
 41
0.000000
 66
  1
  0
VERTEX
  8
gg1
 10
0.050000
 20
0.430000
  0
VERTEX
  8
gg1
 10
0.050000
 20
0.470000
  0
SEQEND
  8
gg1
  0
POLYLINE
  8
gg1
 62
1
 40
0.000000
 41
0.000000
 66
  1
  0
VERTEX
  8
gg1
 10
0.030000
 20
0.350000
  0
VERTEX
  8
gg1
 10
0.070000
 20
0.350000
  0
SEQEND
  8
gg1
  0
POLYLINE
  8
gg1
 62
1
 40
0.000000
 41
0.000000
 66
  1
  0
VERTEX
  8
gg1
 10
0.050000
 20
0.330000
  0
VERTEX
  8
gg1
 10
0.050000
 20
0.370000
  0
SEQEND
  8
gg1
  0
POLYLINE
  8
gg1
 62
1
 40
0.000000
 41
0.000000
 66
  1
  0
VERTEX
  8
gg1
 10
0.805000
 20
0.944000
  0
VERTEX
  8
gg1
 10
0.865000
 20
0.944000
  0
SEQEND
  8
gg1
  0
POLYLINE
  8
gg1
 62
1
 40
0.000000
 41
0.000000
 66
  1
  0
VERTEX
  8
gg1
 10
0.835000
 20
0.914000
  0
VERTEX
  8
gg1
 10
0.835000
 20
0.974000
  0
SEQEND
  8
gg1
  0
POLYLINE
  8
gg1
 62
1
 40
0.000000
 41
0.000000
 66
  1
  0
VERTEX
  8
gg1
 10
0.805000
 20
0.806200
  0
VERTEX
  8
gg1
 10
0.865000
 20
0.806200
  0
SEQEND
  8
gg1
  0
POLYLINE
  8
gg1
 62
1
 40
0.000000
 41
0.000000
 66
  1
  0
VERTEX
  8
gg1
 10
0.835000
 20
0.776200
  0
VERTEX
  8
gg1
 10
0.835000
 20
0.836200
  0
SEQEND
  8
gg1
  0
POLYLINE
  8
gg1
 62
1
 40
0.000000
 41
0.000000
 66
  1
  0
VERTEX
  8
gg1
 10
0.805000
 20
0.255000
  0
VERTEX
  8
gg1
 10
0.865000
 20
0.255000
  0
SEQEND
  8
gg1
  0
POLYLINE
  8
gg1
 62
1
 40
0.000000
 41
0.000000
 66
  1
  0
VERTEX
  8
gg1
 10
0.835000
 20
0.225000
  0
VERTEX
  8
gg1
 10
0.835000
 20
0.285000
  0
SEQEND
  8
gg1
  0
POLYLINE
  8
gg1
 62
1
 40
0.000000
 41
0.000000
 66
  1
  0
VERTEX
  8
gg1
 10
0.805000
 20
0.392800
  0
VERTEX
  8
gg1
 10
0.865000
 20
0.392800
  0
SEQEND
  8
gg1
  0
POLYLINE
  8
gg1
 62
1
 40
0.000000
 41
0.000000
 66
  1
  0
VERTEX
  8
gg1
 10
0.835000
 20
0.362800
  0
VERTEX
  8
gg1
 10
0.835000
 20
0.422800
  0
SEQEND
  8
gg1
  0
POLYLINE
  8
gg1
 62
1
 40
0.000000
 41
0.000000
 66
  1
  0
VERTEX
  8
gg1
 10
0.805000
 20
0.530600
  0
VERTEX
  8
gg1
 10
0.865000
 20
0.530600
  0
SEQEND
  8
gg1
  0
POLYLINE
  8
gg1
 62
1
 40
0.000000
 41
0.000000
 66
  1
  0
VERTEX
  8
gg1
 10
0.835000
 20
0.500600
  0
VERTEX
  8
gg1
 10
0.835000
 20
0.560600
  0
SEQEND
  8
gg1
  0
POLYLINE
  8
gg1
 62
1
 40
0.000000
 41
0.000000
 66
  1
  0
VERTEX
  8
gg1
 10
0.805000
 20
0.668400
  0
VERTEX
  8
gg1
 10
0.865000
 20
0.668400
  0
SEQEND
  8
gg1
  0
POLYLINE
  8
gg1
 62
1
 40
0.000000
 41
0.000000
 66
  1
  0
VERTEX
  8
gg1
 10
0.835000
 20
0.638400
  0
VERTEX
  8
gg1
 10
0.835000
 20
0.698400
  0
SEQEND
  8
gg1
  0
POLYLINE
  8
gg1
 62
1
 40
0.000000
 41
0.000000
 66
  1
  0
VERTEX
  8
gg1
 10
0.930000
 20
0.650000
  0
VERTEX
  8
gg1
 10
0.970000
 20
0.650000
  0
SEQEND
  8
gg1
  0
POLYLINE
  8
gg1
 62
1
 40
0.000000
 41
0.000000
 66
  1
  0
VERTEX
  8
gg1
 10
0.950000
 20
0.630000
  0
VERTEX
  8
gg1
 10
0.950000
 20
0.670000
  0
SEQEND
  8
gg1
  0
POLYLINE
  8
gg1
 62
1
 40
0.000000
 41
0.000000
 66
  1
  0
VERTEX
  8
gg1
 10
0.930000
 20
0.550000
  0
VERTEX
  8
gg1
 10
0.970000
 20
0.550000
  0
SEQEND
  8
gg1
  0
POLYLINE
  8
gg1
 62
1
 40
0.000000
 41
0.000000
 66
  1
  0
VERTEX
  8
gg1
 10
0.950000
 20
0.530000
  0
VERTEX
  8
gg1
 10
0.950000
 20
0.570000
  0
SEQEND
  8
gg1
  0
POLYLINE
  8
gg1
 62
1
 40
0.000000
 41
0.000000
 66
  1
  0
VERTEX
  8
gg1
 10
0.930000
 20
0.450000
  0
VERTEX
  8
gg1
 10
0.970000
 20
0.450000
  0
SEQEND
  8
gg1
  0
POLYLINE
  8
gg1
 62
1
 40
0.000000
 41
0.000000
 66
  1
  0
VERTEX
  8
gg1
 10
0.950000
 20
0.430000
  0
VERTEX
  8
gg1
 10
0.950000
 20
0.470000
  0
SEQEND
  8
gg1
  0
POLYLINE
  8
gg1
 62
1
 40
0.000000
 41
0.000000
 66
  1
  0
VERTEX
  8
gg1
 10
0.930000
 20
0.350000
  0
VERTEX
  8
gg1
 10
0.970000
 20
0.350000
  0
SEQEND
  8
gg1
  0
POLYLINE
  8
gg1
 62
1
 40
0.000000
 41
0.000000
 66
  1
  0
VERTEX
  8
gg1
 10
0.950000
 20
0.330000
  0
VERTEX
  8
gg1
 10
0.950000
 20
0.370000
  0
SEQEND
  8
gg1
  0
POLYLINE
  8
gg1
 62
1
 40
0.000000
 41
0.000000
 66
  1
  0
VERTEX
  8
gg1
 10
0.930000
 20
0.850000
  0
VERTEX
  8
gg1
 10
0.970000
 20
0.850000
  0
SEQEND
  8
gg1
  0
POLYLINE
  8
gg1
 62
1
 40
0.000000
 41
0.000000
 66
  1
  0
VERTEX
  8
gg1
 10
0.950000
 20
0.830000
  0
VERTEX
  8
gg1
 10
0.950000
 20
0.870000
  0
SEQEND
  8
gg1
  0
POLYLINE
  8
gg1
 62
1
 40
0.000000
 41
0.000000
 66
  1
  0
VERTEX
  8
gg1
 10
0.930000
 20
0.950000
  0
VERTEX
  8
gg1
 10
0.970000
 20
0.950000
  0
SEQEND
  8
gg1
  0
POLYLINE
  8
gg1
 62
1
 40
0.000000
 41
0.000000
 66
  1
  0
VERTEX
  8
gg1
 10
0.950000
 20
0.930000
  0
VERTEX
  8
gg1
 10
0.950000
 20
0.970000
  0
SEQEND
  8
gg1
  0
POLYLINE
  8
gg1
 62
1
 40
0.000000
 41
0.000000
 66
  1
  0
VERTEX
  8
gg1
 10
0.130000
 20
1.150000
  0
VERTEX
  8
gg1
 10
0.170000
 20
1.150000
  0
SEQEND
  8
gg1
  0
POLYLINE
  8
gg1
 62
1
 40
0.000000
 41
0.000000
 66
  1
  0
VERTEX
  8
gg1
 10
0.150000
 20
1.130000
  0
VERTEX
  8
gg1
 10
0.150000
 20
1.170000
  0
SEQEND
  8
gg1
  0
POLYLINE
  8
gg1
 62
1
 40
0.000000
 41
0.000000
 66
  1
  0
VERTEX
  8
gg1
 10
0.857000
 20
1.100000
  0
VERTEX
  8
gg1
 10
0.943000
 20
1.100000
  0
SEQEND
  8
gg1
  0
POLYLINE
  8
gg1
 62
1
 40
0.000000
 41
0.000000
 66
  1
  0
VERTEX
  8
gg1
 10
0.900000
 20
1.057000
  0
VERTEX
  8
gg1
 10
0.900000
 20
1.143000
  0
SEQEND
  8
gg1
  0
POLYLINE
  8
gg1
 62
1
 40
0.000000
 41
0.000000
 66
  1
  0
VERTEX
  8
gg1
 10
0.857000
 20
0.100000
  0
VERTEX
  8
gg1
 10
0.943000
 20
0.100000
  0
SEQEND
  8
gg1
  0
POLYLINE
  8
gg1
 62
1
 40
0.000000
 41
0.000000
 66
  1
  0
VERTEX
  8
gg1
 10
0.900000
 20
0.057000
  0
VERTEX
  8
gg1
 10
0.900000
 20
0.143000
  0
SEQEND
  8
gg1
  0
POLYLINE
  8
gg1
 62
1
 40
0.000000
 41
0.000000
 66
  1
  0
VERTEX
  8
gg1
 10
0.730000
 20
0.050000
  0
VERTEX
  8
gg1
 10
0.770000
 20
0.050000
  0
SEQEND
  8
gg1
  0
POLYLINE
  8
gg1
 62
1
 40
0.000000
 41
0.000000
 66
  1
  0
VERTEX
  8
gg1
 10
0.750000
 20
0.030000
  0
VERTEX
  8
gg1
 10
0.750000
 20
0.070000
  0
SEQEND
  8
gg1
  0
POLYLINE
  8
gg1
 62
1
 40
0.000000
 41
0.000000
 66
  1
  0
VERTEX
  8
gg1
 10
0.630000
 20
0.050000
  0
VERTEX
  8
gg1
 10
0.670000
 20
0.050000
  0
SEQEND
  8
gg1
  0
POLYLINE
  8
gg1
 62
1
 40
0.000000
 41
0.000000
 66
  1
  0
VERTEX
  8
gg1
 10
0.650000
 20
0.030000
  0
VERTEX
  8
gg1
 10
0.650000
 20
0.070000
  0
SEQEND
  8
gg1
  0
POLYLINE
  8
gg1
 62
1
 40
0.000000
 41
0.000000
 66
  1
  0
VERTEX
  8
gg1
 10
0.602500
 20
0.690000
  0
VERTEX
  8
gg1
 10
0.617500
 20
0.690000
  0
SEQEND
  8
gg1
  0
POLYLINE
  8
gg1
 62
1
 40
0.000000
 41
0.000000
 66
  1
  0
VERTEX
  8
gg1
 10
0.610000
 20
0.682500
  0
VERTEX
  8
gg1
 10
0.610000
 20
0.697500
  0
SEQEND
  8
gg1
  0
POLYLINE
  8
gg1
 62
1
 40
0.000000
 41
0.000000
 66
  1
  0
VERTEX
  8
gg1
 10
0.557500
 20
0.653000
  0
VERTEX
  8
gg1
 10
0.572500
 20
0.653000
  0
SEQEND
  8
gg1
  0
POLYLINE
  8
gg1
 62
1
 40
0.000000
 41
0.000000
 66
  1
  0
VERTEX
  8
gg1
 10
0.565000
 20
0.645500
  0
VERTEX
  8
gg1
 10
0.565000
 20
0.660500
  0
SEQEND
  8
gg1
  0
POLYLINE
  8
gg1
 62
1
 40
0.000000
 41
0.000000
 66
  1
  0
VERTEX
  8
gg1
 10
0.561100
 20
0.685000
  0
VERTEX
  8
gg1
 10
0.576100
 20
0.685000
  0
SEQEND
  8
gg1
  0
POLYLINE
  8
gg1
 62
1
 40
0.000000
 41
0.000000
 66
  1
  0
VERTEX
  8
gg1
 10
0.568600
 20
0.677500
  0
VERTEX
  8
gg1
 10
0.568600
 20
0.692500
  0
SEQEND
  8
gg1
  0
POLYLINE
  8
gg1
 62
1
 40
0.000000
 41
0.000000
 66
  1
  0
VERTEX
  8
gg1
 10
0.577500
 20
0.710000
  0
VERTEX
  8
gg1
 10
0.592500
 20
0.710000
  0
SEQEND
  8
gg1
  0
POLYLINE
  8
gg1
 62
1
 40
0.000000
 41
0.000000
 66
  1
  0
VERTEX
  8
gg1
 10
0.585000
 20
0.702500
  0
VERTEX
  8
gg1
 10
0.585000
 20
0.717500
  0
SEQEND
  8
gg1
  0
POLYLINE
  8
gg1
 62
1
 40
0.000000
 41
0.000000
 66
  1
  0
VERTEX
  8
gg1
 10
0.262500
 20
0.985000
  0
VERTEX
  8
gg1
 10
0.277500
 20
0.985000
  0
SEQEND
  8
gg1
  0
POLYLINE
  8
gg1
 62
1
 40
0.000000
 41
0.000000
 66
  1
  0
VERTEX
  8
gg1
 10
0.270000
 20
0.977500
  0
VERTEX
  8
gg1
 10
0.270000
 20
0.992500
  0
SEQEND
  8
gg1
  0
POLYLINE
  8
gg1
 62
1
 40
0.000000
 41
0.000000
 66
  1
  0
VERTEX
  8
gg1
 10
0.352500
 20
0.985000
  0
VERTEX
  8
gg1
 10
0.367500
 20
0.985000
  0
SEQEND
  8
gg1
  0
POLYLINE
  8
gg1
 62
1
 40
0.000000
 41
0.000000
 66
  1
  0
VERTEX
  8
gg1
 10
0.360000
 20
0.977500
  0
VERTEX
  8
gg1
 10
0.360000
 20
0.992500
  0
SEQEND
  8
gg1
  0
POLYLINE
  8
gg1
 62
1
 40
0.000000
 41
0.000000
 66
  1
  0
VERTEX
  8
gg1
 10
0.092500
 20
0.190000
  0
VERTEX
  8
gg1
 10
0.107500
 20
0.190000
  0
SEQEND
  8
gg1
  0
POLYLINE
  8
gg1
 62
1
 40
0.000000
 41
0.000000
 66
  1
  0
VERTEX
  8
gg1
 10
0.100000
 20
0.182500
  0
VERTEX
  8
gg1
 10
0.100000
 20
0.197500
  0
SEQEND
  8
gg1
  0
POLYLINE
  8
gg1
 62
1
 40
0.000000
 41
0.000000
 66
  1
  0
VERTEX
  8
gg1
 10
0.202400
 20
0.385100
  0
VERTEX
  8
gg1
 10
0.217400
 20
0.385100
  0
SEQEND
  8
gg1
  0
POLYLINE
  8
gg1
 62
1
 40
0.000000
 41
0.000000
 66
  1
  0
VERTEX
  8
gg1
 10
0.209900
 20
0.377600
  0
VERTEX
  8
gg1
 10
0.209900
 20
0.392600
  0
SEQEND
  8
gg1
  0
POLYLINE
  8
gg1
 62
1
 40
0.000000
 41
0.000000
 66
  1
  0
VERTEX
  8
gg1
 10
0.202500
 20
0.290000
  0
VERTEX
  8
gg1
 10
0.217500
 20
0.290000
  0
SEQEND
  8
gg1
  0
POLYLINE
  8
gg1
 62
1
 40
0.000000
 41
0.000000
 66
  1
  0
VERTEX
  8
gg1
 10
0.210000
 20
0.282500
  0
VERTEX
  8
gg1
 10
0.210000
 20
0.297500
  0
SEQEND
  8
gg1
  0
POLYLINE
  8
gg1
 62
1
 40
0.000000
 41
0.000000
 66
  1
  0
VERTEX
  8
gg1
 10
0.222500
 20
0.350000
  0
VERTEX
  8
gg1
 10
0.237500
 20
0.350000
  0
SEQEND
  8
gg1
  0
POLYLINE
  8
gg1
 62
1
 40
0.000000
 41
0.000000
 66
  1
  0
VERTEX
  8
gg1
 10
0.230000
 20
0.342500
  0
VERTEX
  8
gg1
 10
0.230000
 20
0.357500
  0
SEQEND
  8
gg1
  0
POLYLINE
  8
gg1
 62
1
 40
0.000000
 41
0.000000
 66
  1
  0
VERTEX
  8
gg1
 10
0.162500
 20
0.565000
  0
VERTEX
  8
gg1
 10
0.177500
 20
0.565000
  0
SEQEND
  8
gg1
  0
POLYLINE
  8
gg1
 62
1
 40
0.000000
 41
0.000000
 66
  1
  0
VERTEX
  8
gg1
 10
0.170000
 20
0.557500
  0
VERTEX
  8
gg1
 10
0.170000
 20
0.572500
  0
SEQEND
  8
gg1
  0
POLYLINE
  8
gg1
 62
1
 40
0.000000
 41
0.000000
 66
  1
  0
VERTEX
  8
gg1
 10
0.292500
 20
0.570000
  0
VERTEX
  8
gg1
 10
0.307500
 20
0.570000
  0
SEQEND
  8
gg1
  0
POLYLINE
  8
gg1
 62
1
 40
0.000000
 41
0.000000
 66
  1
  0
VERTEX
  8
gg1
 10
0.300000
 20
0.562500
  0
VERTEX
  8
gg1
 10
0.300000
 20
0.577500
  0
SEQEND
  8
gg1
  0
POLYLINE
  8
gg1
 62
1
 40
0.000000
 41
0.000000
 66
  1
  0
VERTEX
  8
gg1
 10
0.292500
 20
0.610000
  0
VERTEX
  8
gg1
 10
0.307500
 20
0.610000
  0
SEQEND
  8
gg1
  0
POLYLINE
  8
gg1
 62
1
 40
0.000000
 41
0.000000
 66
  1
  0
VERTEX
  8
gg1
 10
0.300000
 20
0.602500
  0
VERTEX
  8
gg1
 10
0.300000
 20
0.617500
  0
SEQEND
  8
gg1
  0
POLYLINE
  8
gg1
 62
1
 40
0.000000
 41
0.000000
 66
  1
  0
VERTEX
  8
gg1
 10
0.477500
 20
0.520000
  0
VERTEX
  8
gg1
 10
0.492500
 20
0.520000
  0
SEQEND
  8
gg1
  0
POLYLINE
  8
gg1
 62
1
 40
0.000000
 41
0.000000
 66
  1
  0
VERTEX
  8
gg1
 10
0.485000
 20
0.512500
  0
VERTEX
  8
gg1
 10
0.485000
 20
0.527500
  0
SEQEND
  8
gg1
  0
POLYLINE
  8
gg1
 62
1
 40
0.000000
 41
0.000000
 66
  1
  0
VERTEX
  8
gg1
 10
0.517500
 20
0.520000
  0
VERTEX
  8
gg1
 10
0.532500
 20
0.520000
  0
SEQEND
  8
gg1
  0
POLYLINE
  8
gg1
 62
1
 40
0.000000
 41
0.000000
 66
  1
  0
VERTEX
  8
gg1
 10
0.525000
 20
0.512500
  0
VERTEX
  8
gg1
 10
0.525000
 20
0.527500
  0
SEQEND
  8
gg1
  0
POLYLINE
  8
gg1
 62
1
 40
0.000000
 41
0.000000
 66
  1
  0
VERTEX
  8
gg1
 10
0.182500
 20
0.445000
  0
VERTEX
  8
gg1
 10
0.197500
 20
0.445000
  0
SEQEND
  8
gg1
  0
POLYLINE
  8
gg1
 62
1
 40
0.000000
 41
0.000000
 66
  1
  0
VERTEX
  8
gg1
 10
0.190000
 20
0.437500
  0
VERTEX
  8
gg1
 10
0.190000
 20
0.452500
  0
SEQEND
  8
gg1
  0
POLYLINE
  8
gg1
 62
1
 40
0.000000
 41
0.000000
 66
  1
  0
VERTEX
  8
gg1
 10
0.524500
 20
0.148000
  0
VERTEX
  8
gg1
 10
0.539500
 20
0.148000
  0
SEQEND
  8
gg1
  0
POLYLINE
  8
gg1
 62
1
 40
0.000000
 41
0.000000
 66
  1
  0
VERTEX
  8
gg1
 10
0.532000
 20
0.140500
  0
VERTEX
  8
gg1
 10
0.532000
 20
0.155500
  0
SEQEND
  8
gg1
  0
POLYLINE
  8
gg1
 62
1
 40
0.000000
 41
0.000000
 66
  1
  0
VERTEX
  8
gg1
 10
0.599800
 20
0.267700
  0
VERTEX
  8
gg1
 10
0.614800
 20
0.267700
  0
SEQEND
  8
gg1
  0
POLYLINE
  8
gg1
 62
1
 40
0.000000
 41
0.000000
 66
  1
  0
VERTEX
  8
gg1
 10
0.607300
 20
0.260200
  0
VERTEX
  8
gg1
 10
0.607300
 20
0.275200
  0
SEQEND
  8
gg1
  0
POLYLINE
  8
gg1
 62
1
 40
0.000000
 41
0.000000
 66
  1
  0
VERTEX
  8
gg1
 10
0.547000
 20
0.267700
  0
VERTEX
  8
gg1
 10
0.562000
 20
0.267700
  0
SEQEND
  8
gg1
  0
POLYLINE
  8
gg1
 62
1
 40
0.000000
 41
0.000000
 66
  1
  0
VERTEX
  8
gg1
 10
0.554500
 20
0.260200
  0
VERTEX
  8
gg1
 10
0.554500
 20
0.275200
  0
SEQEND
  8
gg1
  0
POLYLINE
  8
gg1
 62
1
 40
0.000000
 41
0.000000
 66
  1
  0
VERTEX
  8
gg1
 10
0.441500
 20
0.267700
  0
VERTEX
  8
gg1
 10
0.456500
 20
0.267700
  0
SEQEND
  8
gg1
  0
POLYLINE
  8
gg1
 62
1
 40
0.000000
 41
0.000000
 66
  1
  0
VERTEX
  8
gg1
 10
0.449000
 20
0.260200
  0
VERTEX
  8
gg1
 10
0.449000
 20
0.275200
  0
SEQEND
  8
gg1
  0
POLYLINE
  8
gg1
 62
1
 40
0.000000
 41
0.000000
 66
  1
  0
VERTEX
  8
gg1
 10
0.494300
 20
0.267700
  0
VERTEX
  8
gg1
 10
0.509300
 20
0.267700
  0
SEQEND
  8
gg1
  0
POLYLINE
  8
gg1
 62
1
 40
0.000000
 41
0.000000
 66
  1
  0
VERTEX
  8
gg1
 10
0.501800
 20
0.260200
  0
VERTEX
  8
gg1
 10
0.501800
 20
0.275200
  0
SEQEND
  8
gg1
  0
POLYLINE
  8
gg1
 62
1
 40
0.000000
 41
0.000000
 66
  1
  0
VERTEX
  8
gg1
 10
0.441500
 20
0.426000
  0
VERTEX
  8
gg1
 10
0.456500
 20
0.426000
  0
SEQEND
  8
gg1
  0
POLYLINE
  8
gg1
 62
1
 40
0.000000
 41
0.000000
 66
  1
  0
VERTEX
  8
gg1
 10
0.449000
 20
0.418500
  0
VERTEX
  8
gg1
 10
0.449000
 20
0.433500
  0
SEQEND
  8
gg1
  0
POLYLINE
  8
gg1
 62
1
 40
0.000000
 41
0.000000
 66
  1
  0
VERTEX
  8
gg1
 10
0.494300
 20
0.426000
  0
VERTEX
  8
gg1
 10
0.509300
 20
0.426000
  0
SEQEND
  8
gg1
  0
POLYLINE
  8
gg1
 62
1
 40
0.000000
 41
0.000000
 66
  1
  0
VERTEX
  8
gg1
 10
0.501800
 20
0.418500
  0
VERTEX
  8
gg1
 10
0.501800
 20
0.433500
  0
SEQEND
  8
gg1
  0
POLYLINE
  8
gg1
 62
1
 40
0.000000
 41
0.000000
 66
  1
  0
VERTEX
  8
gg1
 10
0.599800
 20
0.426000
  0
VERTEX
  8
gg1
 10
0.614800
 20
0.426000
  0
SEQEND
  8
gg1
  0
POLYLINE
  8
gg1
 62
1
 40
0.000000
 41
0.000000
 66
  1
  0
VERTEX
  8
gg1
 10
0.607300
 20
0.418500
  0
VERTEX
  8
gg1
 10
0.607300
 20
0.433500
  0
SEQEND
  8
gg1
  0
POLYLINE
  8
gg1
 62
1
 40
0.000000
 41
0.000000
 66
  1
  0
VERTEX
  8
gg1
 10
0.547000
 20
0.426000
  0
VERTEX
  8
gg1
 10
0.562000
 20
0.426000
  0
SEQEND
  8
gg1
  0
POLYLINE
  8
gg1
 62
1
 40
0.000000
 41
0.000000
 66
  1
  0
VERTEX
  8
gg1
 10
0.554500
 20
0.418500
  0
VERTEX
  8
gg1
 10
0.554500
 20
0.433500
  0
SEQEND
  8
gg1
  0
POLYLINE
  8
gg1
 62
1
 40
0.000000
 41
0.000000
 66
  1
  0
VERTEX
  8
gg1
 10
0.441500
 20
0.320500
  0
VERTEX
  8
gg1
 10
0.456500
 20
0.320500
  0
SEQEND
  8
gg1
  0
POLYLINE
  8
gg1
 62
1
 40
0.000000
 41
0.000000
 66
  1
  0
VERTEX
  8
gg1
 10
0.449000
 20
0.313000
  0
VERTEX
  8
gg1
 10
0.449000
 20
0.328000
  0
SEQEND
  8
gg1
  0
POLYLINE
  8
gg1
 62
1
 40
0.000000
 41
0.000000
 66
  1
  0
VERTEX
  8
gg1
 10
0.441500
 20
0.373200
  0
VERTEX
  8
gg1
 10
0.456500
 20
0.373200
  0
SEQEND
  8
gg1
  0
POLYLINE
  8
gg1
 62
1
 40
0.000000
 41
0.000000
 66
  1
  0
VERTEX
  8
gg1
 10
0.449000
 20
0.365700
  0
VERTEX
  8
gg1
 10
0.449000
 20
0.380700
  0
SEQEND
  8
gg1
  0
POLYLINE
  8
gg1
 62
1
 40
0.000000
 41
0.000000
 66
  1
  0
VERTEX
  8
gg1
 10
0.599800
 20
0.320500
  0
VERTEX
  8
gg1
 10
0.614800
 20
0.320500
  0
SEQEND
  8
gg1
  0
POLYLINE
  8
gg1
 62
1
 40
0.000000
 41
0.000000
 66
  1
  0
VERTEX
  8
gg1
 10
0.607300
 20
0.313000
  0
VERTEX
  8
gg1
 10
0.607300
 20
0.328000
  0
SEQEND
  8
gg1
  0
POLYLINE
  8
gg1
 62
1
 40
0.000000
 41
0.000000
 66
  1
  0
VERTEX
  8
gg1
 10
0.599800
 20
0.373200
  0
VERTEX
  8
gg1
 10
0.614800
 20
0.373200
  0
SEQEND
  8
gg1
  0
POLYLINE
  8
gg1
 62
1
 40
0.000000
 41
0.000000
 66
  1
  0
VERTEX
  8
gg1
 10
0.607300
 20
0.365700
  0
VERTEX
  8
gg1
 10
0.607300
 20
0.380700
  0
SEQEND
  8
gg1
  0
POLYLINE
  8
gg1
 62
1
 40
0.000000
 41
0.000000
 66
  1
  0
VERTEX
  8
gg1
 10
0.494300
 20
0.373200
  0
VERTEX
  8
gg1
 10
0.509300
 20
0.373200
  0
SEQEND
  8
gg1
  0
POLYLINE
  8
gg1
 62
1
 40
0.000000
 41
0.000000
 66
  1
  0
VERTEX
  8
gg1
 10
0.501800
 20
0.365700
  0
VERTEX
  8
gg1
 10
0.501800
 20
0.380700
  0
SEQEND
  8
gg1
  0
POLYLINE
  8
gg1
 62
1
 40
0.000000
 41
0.000000
 66
  1
  0
VERTEX
  8
gg1
 10
0.494300
 20
0.320500
  0
VERTEX
  8
gg1
 10
0.509300
 20
0.320500
  0
SEQEND
  8
gg1
  0
POLYLINE
  8
gg1
 62
1
 40
0.000000
 41
0.000000
 66
  1
  0
VERTEX
  8
gg1
 10
0.501800
 20
0.313000
  0
VERTEX
  8
gg1
 10
0.501800
 20
0.328000
  0
SEQEND
  8
gg1
  0
POLYLINE
  8
gg1
 62
1
 40
0.000000
 41
0.000000
 66
  1
  0
VERTEX
  8
gg1
 10
0.547000
 20
0.320500
  0
VERTEX
  8
gg1
 10
0.562000
 20
0.320500
  0
SEQEND
  8
gg1
  0
POLYLINE
  8
gg1
 62
1
 40
0.000000
 41
0.000000
 66
  1
  0
VERTEX
  8
gg1
 10
0.554500
 20
0.313000
  0
VERTEX
  8
gg1
 10
0.554500
 20
0.328000
  0
SEQEND
  8
gg1
  0
POLYLINE
  8
gg1
 62
1
 40
0.000000
 41
0.000000
 66
  1
  0
VERTEX
  8
gg1
 10
0.547000
 20
0.373200
  0
VERTEX
  8
gg1
 10
0.562000
 20
0.373200
  0
SEQEND
  8
gg1
  0
POLYLINE
  8
gg1
 62
1
 40
0.000000
 41
0.000000
 66
  1
  0
VERTEX
  8
gg1
 10
0.554500
 20
0.365700
  0
VERTEX
  8
gg1
 10
0.554500
 20
0.380700
  0
SEQEND
  8
gg1
  0
POLYLINE
  8
gg1
 62
1
 40
0.000000
 41
0.000000
 66
  1
  0
VERTEX
  8
gg1
 10
0.712500
 20
0.100000
  0
VERTEX
  8
gg1
 10
0.727500
 20
0.100000
  0
SEQEND
  8
gg1
  0
POLYLINE
  8
gg1
 62
1
 40
0.000000
 41
0.000000
 66
  1
  0
VERTEX
  8
gg1
 10
0.720000
 20
0.092500
  0
VERTEX
  8
gg1
 10
0.720000
 20
0.107500
  0
SEQEND
  8
gg1
  0
POLYLINE
  8
gg1
 62
1
 40
0.000000
 41
0.000000
 66
  1
  0
VERTEX
  8
gg1
 10
0.742500
 20
0.100000
  0
VERTEX
  8
gg1
 10
0.757500
 20
0.100000
  0
SEQEND
  8
gg1
  0
POLYLINE
  8
gg1
 62
1
 40
0.000000
 41
0.000000
 66
  1
  0
VERTEX
  8
gg1
 10
0.750000
 20
0.092500
  0
VERTEX
  8
gg1
 10
0.750000
 20
0.107500
  0
SEQEND
  8
gg1
  0
POLYLINE
  8
gg1
 62
1
 40
0.000000
 41
0.000000
 66
  1
  0
VERTEX
  8
gg1
 10
0.772500
 20
0.100000
  0
VERTEX
  8
gg1
 10
0.787500
 20
0.100000
  0
SEQEND
  8
gg1
  0
POLYLINE
  8
gg1
 62
1
 40
0.000000
 41
0.000000
 66
  1
  0
VERTEX
  8
gg1
 10
0.780000
 20
0.092500
  0
VERTEX
  8
gg1
 10
0.780000
 20
0.107500
  0
SEQEND
  8
gg1
  0
POLYLINE
  8
gg1
 62
1
 40
0.000000
 41
0.000000
 66
  1
  0
VERTEX
  8
gg1
 10
0.542500
 20
0.710000
  0
VERTEX
  8
gg1
 10
0.557500
 20
0.710000
  0
SEQEND
  8
gg1
  0
POLYLINE
  8
gg1
 62
1
 40
0.000000
 41
0.000000
 66
  1
  0
VERTEX
  8
gg1
 10
0.550000
 20
0.702500
  0
VERTEX
  8
gg1
 10
0.550000
 20
0.717500
  0
SEQEND
  8
gg1
  0
POLYLINE
  8
gg1
 62
1
 40
0.000000
 41
0.000000
 66
  1
  0
VERTEX
  8
gg1
 10
0.122500
 20
0.300000
  0
VERTEX
  8
gg1
 10
0.137500
 20
0.300000
  0
SEQEND
  8
gg1
  0
POLYLINE
  8
gg1
 62
1
 40
0.000000
 41
0.000000
 66
  1
  0
VERTEX
  8
gg1
 10
0.130000
 20
0.292500
  0
VERTEX
  8
gg1
 10
0.130000
 20
0.307500
  0
SEQEND
  8
gg1
  0
POLYLINE
  8
gg1
 62
1
 40
0.000000
 41
0.000000
 66
  1
  0
VERTEX
  8
gg1
 10
0.112500
 20
0.725000
  0
VERTEX
  8
gg1
 10
0.127500
 20
0.725000
  0
SEQEND
  8
gg1
  0
POLYLINE
  8
gg1
 62
1
 40
0.000000
 41
0.000000
 66
  1
  0
VERTEX
  8
gg1
 10
0.120000
 20
0.717500
  0
VERTEX
  8
gg1
 10
0.120000
 20
0.732500
  0
SEQEND
  8
gg1
  0
POLYLINE
  8
gg1
 62
1
 40
0.000000
 41
0.000000
 66
  1
  0
VERTEX
  8
gg1
 10
0.187500
 20
0.085000
  0
VERTEX
  8
gg1
 10
0.202500
 20
0.085000
  0
SEQEND
  8
gg1
  0
POLYLINE
  8
gg1
 62
1
 40
0.000000
 41
0.000000
 66
  1
  0
VERTEX
  8
gg1
 10
0.195000
 20
0.077500
  0
VERTEX
  8
gg1
 10
0.195000
 20
0.092500
  0
SEQEND
  8
gg1
  0
POLYLINE
  8
gg1
 62
1
 40
0.000000
 41
0.000000
 66
  1
  0
VERTEX
  8
gg1
 10
0.167500
 20
0.115000
  0
VERTEX
  8
gg1
 10
0.182500
 20
0.115000
  0
SEQEND
  8
gg1
  0
POLYLINE
  8
gg1
 62
1
 40
0.000000
 41
0.000000
 66
  1
  0
VERTEX
  8
gg1
 10
0.175000
 20
0.107500
  0
VERTEX
  8
gg1
 10
0.175000
 20
0.122500
  0
SEQEND
  8
gg1
  0
POLYLINE
  8
gg1
 62
1
 40
0.000000
 41
0.000000
 66
  1
  0
VERTEX
  8
gg1
 10
0.697500
 20
0.850000
  0
VERTEX
  8
gg1
 10
0.712500
 20
0.850000
  0
SEQEND
  8
gg1
  0
POLYLINE
  8
gg1
 62
1
 40
0.000000
 41
0.000000
 66
  1
  0
VERTEX
  8
gg1
 10
0.705000
 20
0.842500
  0
VERTEX
  8
gg1
 10
0.705000
 20
0.857500
  0
SEQEND
  8
gg1
  0
POLYLINE
  8
gg1
 62
1
 40
0.000000
 41
0.000000
 66
  1
  0
VERTEX
  8
gg1
 10
0.662500
 20
0.740000
  0
VERTEX
  8
gg1
 10
0.677500
 20
0.740000
  0
SEQEND
  8
gg1
  0
POLYLINE
  8
gg1
 62
1
 40
0.000000
 41
0.000000
 66
  1
  0
VERTEX
  8
gg1
 10
0.670000
 20
0.732500
  0
VERTEX
  8
gg1
 10
0.670000
 20
0.747500
  0
SEQEND
  8
gg1
  0
POLYLINE
  8
gg1
 62
1
 40
0.000000
 41
0.000000
 66
  1
  0
VERTEX
  8
gg1
 10
0.727500
 20
0.740000
  0
VERTEX
  8
gg1
 10
0.742500
 20
0.740000
  0
SEQEND
  8
gg1
  0
POLYLINE
  8
gg1
 62
1
 40
0.000000
 41
0.000000
 66
  1
  0
VERTEX
  8
gg1
 10
0.735000
 20
0.732500
  0
VERTEX
  8
gg1
 10
0.735000
 20
0.747500
  0
SEQEND
  8
gg1
  0
POLYLINE
  8
gg1
 62
1
 40
0.000000
 41
0.000000
 66
  1
  0
VERTEX
  8
gg1
 10
0.252500
 20
0.685000
  0
VERTEX
  8
gg1
 10
0.267500
 20
0.685000
  0
SEQEND
  8
gg1
  0
POLYLINE
  8
gg1
 62
1
 40
0.000000
 41
0.000000
 66
  1
  0
VERTEX
  8
gg1
 10
0.260000
 20
0.677500
  0
VERTEX
  8
gg1
 10
0.260000
 20
0.692500
  0
SEQEND
  8
gg1
  0
POLYLINE
  8
gg1
 62
1
 40
0.000000
 41
0.000000
 66
  1
  0
VERTEX
  8
gg1
 10
0.312500
 20
0.685000
  0
VERTEX
  8
gg1
 10
0.327500
 20
0.685000
  0
SEQEND
  8
gg1
  0
POLYLINE
  8
gg1
 62
1
 40
0.000000
 41
0.000000
 66
  1
  0
VERTEX
  8
gg1
 10
0.320000
 20
0.677500
  0
VERTEX
  8
gg1
 10
0.320000
 20
0.692500
  0
SEQEND
  8
gg1
  0
POLYLINE
  8
gg1
 62
1
 40
0.000000
 41
0.000000
 66
  1
  0
VERTEX
  8
gg1
 10
0.372500
 20
0.685000
  0
VERTEX
  8
gg1
 10
0.387500
 20
0.685000
  0
SEQEND
  8
gg1
  0
POLYLINE
  8
gg1
 62
1
 40
0.000000
 41
0.000000
 66
  1
  0
VERTEX
  8
gg1
 10
0.380000
 20
0.677500
  0
VERTEX
  8
gg1
 10
0.380000
 20
0.692500
  0
SEQEND
  8
gg1
  0
POLYLINE
  8
gg1
 62
1
 40
0.000000
 41
0.000000
 66
  1
  0
VERTEX
  8
gg1
 10
0.307500
 20
0.860000
  0
VERTEX
  8
gg1
 10
0.322500
 20
0.860000
  0
SEQEND
  8
gg1
  0
POLYLINE
  8
gg1
 62
1
 40
0.000000
 41
0.000000
 66
  1
  0
VERTEX
  8
gg1
 10
0.315000
 20
0.852500
  0
VERTEX
  8
gg1
 10
0.315000
 20
0.867500
  0
SEQEND
  8
gg1
  0
POLYLINE
  8
gg1
 62
1
 40
0.000000
 41
0.000000
 66
  1
  0
VERTEX
  8
gg1
 10
0.262500
 20
0.895000
  0
VERTEX
  8
gg1
 10
0.277500
 20
0.895000
  0
SEQEND
  8
gg1
  0
POLYLINE
  8
gg1
 62
1
 40
0.000000
 41
0.000000
 66
  1
  0
VERTEX
  8
gg1
 10
0.270000
 20
0.887500
  0
VERTEX
  8
gg1
 10
0.270000
 20
0.902500
  0
SEQEND
  8
gg1
  0
POLYLINE
  8
gg1
 62
1
 40
0.000000
 41
0.000000
 66
  1
  0
VERTEX
  8
gg1
 10
0.262500
 20
0.830000
  0
VERTEX
  8
gg1
 10
0.277500
 20
0.830000
  0
SEQEND
  8
gg1
  0
POLYLINE
  8
gg1
 62
1
 40
0.000000
 41
0.000000
 66
  1
  0
VERTEX
  8
gg1
 10
0.270000
 20
0.822500
  0
VERTEX
  8
gg1
 10
0.270000
 20
0.837500
  0
SEQEND
  8
gg1
  0
POLYLINE
  8
gg1
 62
1
 40
0.000000
 41
0.000000
 66
  1
  0
VERTEX
  8
gg1
 10
0.352500
 20
0.895000
  0
VERTEX
  8
gg1
 10
0.367500
 20
0.895000
  0
SEQEND
  8
gg1
  0
POLYLINE
  8
gg1
 62
1
 40
0.000000
 41
0.000000
 66
  1
  0
VERTEX
  8
gg1
 10
0.360000
 20
0.887500
  0
VERTEX
  8
gg1
 10
0.360000
 20
0.902500
  0
SEQEND
  8
gg1
  0
POLYLINE
  8
gg1
 62
1
 40
0.000000
 41
0.000000
 66
  1
  0
VERTEX
  8
gg1
 10
0.352500
 20
0.830000
  0
VERTEX
  8
gg1
 10
0.367500
 20
0.830000
  0
SEQEND
  8
gg1
  0
POLYLINE
  8
gg1
 62
1
 40
0.000000
 41
0.000000
 66
  1
  0
VERTEX
  8
gg1
 10
0.360000
 20
0.822500
  0
VERTEX
  8
gg1
 10
0.360000
 20
0.837500
  0
SEQEND
  8
gg1
  0
POLYLINE
  8
gg1
 62
1
 40
0.000000
 41
0.000000
 66
  1
  0
VERTEX
  8
gg1
 10
0.212500
 20
0.115000
  0
VERTEX
  8
gg1
 10
0.227500
 20
0.115000
  0
SEQEND
  8
gg1
  0
POLYLINE
  8
gg1
 62
1
 40
0.000000
 41
0.000000
 66
  1
  0
VERTEX
  8
gg1
 10
0.220000
 20
0.107500
  0
VERTEX
  8
gg1
 10
0.220000
 20
0.122500
  0
SEQEND
  8
gg1
  0
POLYLINE
  8
gg1
 62
1
 40
0.000000
 41
0.000000
 66
  1
  0
VERTEX
  8
gg1
 10
0.092500
 20
0.905000
  0
VERTEX
  8
gg1
 10
0.107500
 20
0.905000
  0
SEQEND
  8
gg1
  0
POLYLINE
  8
gg1
 62
1
 40
0.000000
 41
0.000000
 66
  1
  0
VERTEX
  8
gg1
 10
0.100000
 20
0.897500
  0
VERTEX
  8
gg1
 10
0.100000
 20
0.912500
  0
SEQEND
  8
gg1
  0
POLYLINE
  8
gg1
 62
1
 40
0.000000
 41
0.000000
 66
  1
  0
VERTEX
  8
gg1
 10
0.092500
 20
0.810000
  0
VERTEX
  8
gg1
 10
0.107500
 20
0.810000
  0
SEQEND
  8
gg1
  0
POLYLINE
  8
gg1
 62
1
 40
0.000000
 41
0.000000
 66
  1
  0
VERTEX
  8
gg1
 10
0.100000
 20
0.802500
  0
VERTEX
  8
gg1
 10
0.100000
 20
0.817500
  0
SEQEND
  8
gg1
  0
POLYLINE
  8
gg1
 62
1
 40
0.000000
 41
0.000000
 66
  1
  0
VERTEX
  8
gg1
 10
0.692500
 20
0.230000
  0
VERTEX
  8
gg1
 10
0.707500
 20
0.230000
  0
SEQEND
  8
gg1
  0
POLYLINE
  8
gg1
 62
1
 40
0.000000
 41
0.000000
 66
  1
  0
VERTEX
  8
gg1
 10
0.700000
 20
0.222500
  0
VERTEX
  8
gg1
 10
0.700000
 20
0.237500
  0
SEQEND
  8
gg1
  0
POLYLINE
  8
gg1
 62
1
 40
0.000000
 41
0.000000
 66
  1
  0
VERTEX
  8
gg1
 10
0.692500
 20
0.275000
  0
VERTEX
  8
gg1
 10
0.707500
 20
0.275000
  0
SEQEND
  8
gg1
  0
POLYLINE
  8
gg1
 62
1
 40
0.000000
 41
0.000000
 66
  1
  0
VERTEX
  8
gg1
 10
0.700000
 20
0.267500
  0
VERTEX
  8
gg1
 10
0.700000
 20
0.282500
  0
SEQEND
  8
gg1
  0
POLYLINE
  8
gg1
 62
1
 40
0.000000
 41
0.000000
 66
  1
  0
VERTEX
  8
gg1
 10
0.202500
 20
1.105000
  0
VERTEX
  8
gg1
 10
0.217500
 20
1.105000
  0
SEQEND
  8
gg1
  0
POLYLINE
  8
gg1
 62
1
 40
0.000000
 41
0.000000
 66
  1
  0
VERTEX
  8
gg1
 10
0.210000
 20
1.097500
  0
VERTEX
  8
gg1
 10
0.210000
 20
1.112500
  0
SEQEND
  8
gg1
  0
POLYLINE
  8
gg1
 62
1
 40
0.000000
 41
0.000000
 66
  1
  0
VERTEX
  8
gg1
 10
0.267500
 20
1.105000
  0
VERTEX
  8
gg1
 10
0.282500
 20
1.105000
  0
SEQEND
  8
gg1
  0
POLYLINE
  8
gg1
 62
1
 40
0.000000
 41
0.000000
 66
  1
  0
VERTEX
  8
gg1
 10
0.275000
 20
1.097500
  0
VERTEX
  8
gg1
 10
0.275000
 20
1.112500
  0
SEQEND
  8
gg1
  0
POLYLINE
  8
gg1
 62
1
 40
0.000000
 41
0.000000
 66
  1
  0
VERTEX
  8
gg1
 10
0.332500
 20
1.105000
  0
VERTEX
  8
gg1
 10
0.347500
 20
1.105000
  0
SEQEND
  8
gg1
  0
POLYLINE
  8
gg1
 62
1
 40
0.000000
 41
0.000000
 66
  1
  0
VERTEX
  8
gg1
 10
0.340000
 20
1.097500
  0
VERTEX
  8
gg1
 10
0.340000
 20
1.112500
  0
SEQEND
  8
gg1
  0
POLYLINE
  8
gg1
 62
1
 40
0.000000
 41
0.000000
 66
  1
  0
VERTEX
  8
gg1
 10
0.322500
 20
0.445000
  0
VERTEX
  8
gg1
 10
0.337500
 20
0.445000
  0
SEQEND
  8
gg1
  0
POLYLINE
  8
gg1
 62
1
 40
0.000000
 41
0.000000
 66
  1
  0
VERTEX
  8
gg1
 10
0.330000
 20
0.437500
  0
VERTEX
  8
gg1
 10
0.330000
 20
0.452500
  0
SEQEND
  8
gg1
  0
POLYLINE
  8
gg1
 62
1
 40
0.000000
 41
0.000000
 66
  1
  0
VERTEX
  8
gg1
 10
0.297500
 20
0.525000
  0
VERTEX
  8
gg1
 10
0.312500
 20
0.525000
  0
SEQEND
  8
gg1
  0
POLYLINE
  8
gg1
 62
1
 40
0.000000
 41
0.000000
 66
  1
  0
VERTEX
  8
gg1
 10
0.305000
 20
0.517500
  0
VERTEX
  8
gg1
 10
0.305000
 20
0.532500
  0
SEQEND
  8
gg1
  0
POLYLINE
  8
gg1
 62
1
 40
0.000000
 41
0.000000
 66
  1
  0
VERTEX
  8
gg1
 10
0.367500
 20
0.495000
  0
VERTEX
  8
gg1
 10
0.382500
 20
0.495000
  0
SEQEND
  8
gg1
  0
POLYLINE
  8
gg1
 62
1
 40
0.000000
 41
0.000000
 66
  1
  0
VERTEX
  8
gg1
 10
0.375000
 20
0.487500
  0
VERTEX
  8
gg1
 10
0.375000
 20
0.502500
  0
SEQEND
  8
gg1
  0
POLYLINE
  8
gg1
 62
1
 40
0.000000
 41
0.000000
 66
  1
  0
VERTEX
  8
gg1
 10
-0.349000
 20
0.404100
  0
VERTEX
  8
gg1
 10
-0.349000
 20
0.424100
  0
VERTEX
  8
gg1
 10
-0.349000
 20
0.414100
  0
VERTEX
  8
gg1
 10
-0.409000
 20
0.414100
  0
VERTEX
  8
gg1
 10
-0.399000
 20
0.404100
  0
SEQEND
  8
gg1
  0
POLYLINE
  8
gg1
 62
1
 40
0.000000
 41
0.000000
 66
  1
  0
VERTEX
  8
gg1
 10
-0.349000
 20
0.494000
  0
VERTEX
  8
gg1
 10
-0.349000
 20
0.454000
  0
VERTEX
  8
gg1
 10
-0.389000
 20
0.494000
  0
VERTEX
  8
gg1
 10
-0.399000
 20
0.494000
  0
VERTEX
  8
gg1
 10
-0.409000
 20
0.484000
  0
VERTEX
  8
gg1
 10
-0.409000
 20
0.464000
  0
VERTEX
  8
gg1
 10
-0.399000
 20
0.454000
  0
SEQEND
  8
gg1
  0
POLYLINE
  8
gg1
 62
1
 40
0.000000
 41
0.000000
 66
  1
  0
VERTEX
  8
gg1
 10
-0.399000
 20
0.514000
  0
VERTEX
  8
gg1
 10
-0.409000
 20
0.524000
  0
VERTEX
  8
gg1
 10
-0.409000
 20
0.544000
  0
VERTEX
  8
gg1
 10
-0.399000
 20
0.554000
  0
VERTEX
  8
gg1
 10
-0.359000
 20
0.554000
  0
VERTEX
  8
gg1
 10
-0.349000
 20
0.544000
  0
VERTEX
  8
gg1
 10
-0.349000
 20
0.524000
  0
VERTEX
  8
gg1
 10
-0.359000
 20
0.514000
  0
VERTEX
  8
gg1
 10
-0.399000
 20
0.514000
  0
SEQEND
  8
gg1
  0
POLYLINE
  8
gg1
 62
1
 40
0.000000
 41
0.000000
 66
  1
  0
VERTEX
  8
gg1
 10
-0.399000
 20
0.574000
  0
VERTEX
  8
gg1
 10
-0.409000
 20
0.584000
  0
VERTEX
  8
gg1
 10
-0.409000
 20
0.604000
  0
VERTEX
  8
gg1
 10
-0.399000
 20
0.614000
  0
VERTEX
  8
gg1
 10
-0.359000
 20
0.614000
  0
VERTEX
  8
gg1
 10
-0.349000
 20
0.604000
  0
VERTEX
  8
gg1
 10
-0.349000
 20
0.584000
  0
VERTEX
  8
gg1
 10
-0.359000
 20
0.574000
  0
VERTEX
  8
gg1
 10
-0.399000
 20
0.574000
  0
SEQEND
  8
gg1
  0
POLYLINE
  8
gg1
 62
1
 40
0.000000
 41
0.000000
 66
  1
  0
VERTEX
  8
gg1
 10
-0.349000
 20
0.634000
  0
VERTEX
  8
gg1
 10
-0.389000
 20
0.634000
  0
VERTEX
  8
gg1
 10
-0.389000
 20
0.644000
  0
VERTEX
  8
gg1
 10
-0.379000
 20
0.654000
  0
VERTEX
  8
gg1
 10
-0.349000
 20
0.654000
  0
VERTEX
  8
gg1
 10
-0.379000
 20
0.654000
  0
VERTEX
  8
gg1
 10
-0.389000
 20
0.664000
  0
VERTEX
  8
gg1
 10
-0.379000
 20
0.674000
  0
VERTEX
  8
gg1
 10
-0.349000
 20
0.674000
  0
SEQEND
  8
gg1
  0
POLYLINE
  8
gg1
 62
1
 40
0.000000
 41
0.000000
 66
  1
  0
VERTEX
  8
gg1
 10
-0.349000
 20
0.694000
  0
VERTEX
  8
gg1
 10
-0.349000
 20
0.714000
  0
VERTEX
  8
gg1
 10
-0.349000
 20
0.704000
  0
VERTEX
  8
gg1
 10
-0.389000
 20
0.704000
  0
VERTEX
  8
gg1
 10
-0.389000
 20
0.694000
  0
SEQEND
  8
gg1
  0
POLYLINE
  8
gg1
 62
1
 40
0.000000
 41
0.000000
 66
  1
  0
VERTEX
  8
gg1
 10
-0.349000
 20
0.743900
  0
VERTEX
  8
gg1
 10
-0.349000
 20
0.763900
  0
VERTEX
  8
gg1
 10
-0.349000
 20
0.753900
  0
VERTEX
  8
gg1
 10
-0.409000
 20
0.753900
  0
VERTEX
  8
gg1
 10
-0.409000
 20
0.743900
  0
SEQEND
  8
gg1
  0
POLYLINE
  8
gg1
 62
1
 40
0.000000
 41
0.000000
 66
  1
  0
VERTEX
  8
gg1
 10
0.304100
 20
-0.131000
  0
VERTEX
  8
gg1
 10
0.324100
 20
-0.131000
  0
VERTEX
  8
gg1
 10
0.314100
 20
-0.131000
  0
VERTEX
  8
gg1
 10
0.314100
 20
-0.071000
  0
VERTEX
  8
gg1
 10
0.304100
 20
-0.081000
  0
SEQEND
  8
gg1
  0
POLYLINE
  8
gg1
 62
1
 40
0.000000
 41
0.000000
 66
  1
  0
VERTEX
  8
gg1
 10
0.354000
 20
-0.081000
  0
VERTEX
  8
gg1
 10
0.364000
 20
-0.071000
  0
VERTEX
  8
gg1
 10
0.384000
 20
-0.071000
  0
VERTEX
  8
gg1
 10
0.394000
 20
-0.081000
  0
VERTEX
  8
gg1
 10
0.394000
 20
-0.121000
  0
VERTEX
  8
gg1
 10
0.384000
 20
-0.131000
  0
VERTEX
  8
gg1
 10
0.364000
 20
-0.131000
  0
VERTEX
  8
gg1
 10
0.354000
 20
-0.121000
  0
VERTEX
  8
gg1
 10
0.354000
 20
-0.081000
  0
SEQEND
  8
gg1
  0
POLYLINE
  8
gg1
 62
1
 40
0.000000
 41
0.000000
 66
  1
  0
VERTEX
  8
gg1
 10
0.414000
 20
-0.081000
  0
VERTEX
  8
gg1
 10
0.424000
 20
-0.071000
  0
VERTEX
  8
gg1
 10
0.444000
 20
-0.071000
  0
VERTEX
  8
gg1
 10
0.454000
 20
-0.081000
  0
VERTEX
  8
gg1
 10
0.454000
 20
-0.121000
  0
VERTEX
  8
gg1
 10
0.444000
 20
-0.131000
  0
VERTEX
  8
gg1
 10
0.424000
 20
-0.131000
  0
VERTEX
  8
gg1
 10
0.414000
 20
-0.121000
  0
VERTEX
  8
gg1
 10
0.414000
 20
-0.081000
  0
SEQEND
  8
gg1
  0
POLYLINE
  8
gg1
 62
1
 40
0.000000
 41
0.000000
 66
  1
  0
VERTEX
  8
gg1
 10
0.474000
 20
-0.081000
  0
VERTEX
  8
gg1
 10
0.484000
 20
-0.071000
  0
VERTEX
  8
gg1
 10
0.504000
 20
-0.071000
  0
VERTEX
  8
gg1
 10
0.514000
 20
-0.081000
  0
VERTEX
  8
gg1
 10
0.514000
 20
-0.121000
  0
VERTEX
  8
gg1
 10
0.504000
 20
-0.131000
  0
VERTEX
  8
gg1
 10
0.484000
 20
-0.131000
  0
VERTEX
  8
gg1
 10
0.474000
 20
-0.121000
  0
VERTEX
  8
gg1
 10
0.474000
 20
-0.081000
  0
SEQEND
  8
gg1
  0
POLYLINE
  8
gg1
 62
1
 40
0.000000
 41
0.000000
 66
  1
  0
VERTEX
  8
gg1
 10
0.534000
 20
-0.131000
  0
VERTEX
  8
gg1
 10
0.534000
 20
-0.091000
  0
VERTEX
  8
gg1
 10
0.544000
 20
-0.091000
  0
VERTEX
  8
gg1
 10
0.554000
 20
-0.101000
  0
VERTEX
  8
gg1
 10
0.554000
 20
-0.131000
  0
VERTEX
  8
gg1
 10
0.554000
 20
-0.101000
  0
VERTEX
  8
gg1
 10
0.564000
 20
-0.091000
  0
VERTEX
  8
gg1
 10
0.574000
 20
-0.101000
  0
VERTEX
  8
gg1
 10
0.574000
 20
-0.131000
  0
SEQEND
  8
gg1
  0
POLYLINE
  8
gg1
 62
1
 40
0.000000
 41
0.000000
 66
  1
  0
VERTEX
  8
gg1
 10
0.594000
 20
-0.131000
  0
VERTEX
  8
gg1
 10
0.614000
 20
-0.131000
  0
VERTEX
  8
gg1
 10
0.604000
 20
-0.131000
  0
VERTEX
  8
gg1
 10
0.604000
 20
-0.091000
  0
VERTEX
  8
gg1
 10
0.594000
 20
-0.091000
  0
SEQEND
  8
gg1
  0
POLYLINE
  8
gg1
 62
1
 40
0.000000
 41
0.000000
 66
  1
  0
VERTEX
  8
gg1
 10
0.643900
 20
-0.131000
  0
VERTEX
  8
gg1
 10
0.663900
 20
-0.131000
  0
VERTEX
  8
gg1
 10
0.653900
 20
-0.131000
  0
VERTEX
  8
gg1
 10
0.653900
 20
-0.071000
  0
VERTEX
  8
gg1
 10
0.643900
 20
-0.071000
  0
SEQEND
  8
gg1
  0
ENDSEC
  0
EOF
